<mxfile host="app.diagrams.net" modified="2024-01-04T14:17:29.690Z" agent="Mozilla/5.0 (Windows NT 10.0; Win64; x64) AppleWebKit/537.36 (KHTML, like Gecko) Chrome/120.0.0.0 Safari/537.36" etag="hy-uXFS1PFB0lhxKfBxt" version="22.1.16" type="device">
  <diagram name="Halaman-1" id="PR2gg5NGdkAtusy0RBkc">
    <mxGraphModel dx="921" dy="431" grid="1" gridSize="10" guides="1" tooltips="1" connect="1" arrows="1" fold="1" page="1" pageScale="1" pageWidth="827" pageHeight="1169" math="0" shadow="0">
      <root>
        <mxCell id="0" />
        <mxCell id="1" parent="0" />
        <mxCell id="N4xBi6FYFiMWQYnDKV4r-1" value="" style="shape=umlLifeline;perimeter=lifelinePerimeter;whiteSpace=wrap;html=1;container=1;dropTarget=0;collapsible=0;recursiveResize=0;outlineConnect=0;portConstraint=eastwest;newEdgeStyle={&quot;curved&quot;:0,&quot;rounded&quot;:0};participant=umlActor;" vertex="1" parent="1">
          <mxGeometry x="70" y="40" width="20" height="300" as="geometry" />
        </mxCell>
        <mxCell id="N4xBi6FYFiMWQYnDKV4r-3" value="" style="html=1;points=[[0,0,0,0,5],[0,1,0,0,-5],[1,0,0,0,5],[1,1,0,0,-5]];perimeter=orthogonalPerimeter;outlineConnect=0;targetShapes=umlLifeline;portConstraint=eastwest;newEdgeStyle={&quot;curved&quot;:0,&quot;rounded&quot;:0};" vertex="1" parent="N4xBi6FYFiMWQYnDKV4r-1">
          <mxGeometry x="5" y="60" width="10" height="150" as="geometry" />
        </mxCell>
        <mxCell id="N4xBi6FYFiMWQYnDKV4r-2" value="&amp;nbsp; &amp;nbsp; &amp;nbsp;Pertanyaan" style="shape=umlLifeline;perimeter=lifelinePerimeter;whiteSpace=wrap;html=1;container=1;dropTarget=0;collapsible=0;recursiveResize=0;outlineConnect=0;portConstraint=eastwest;newEdgeStyle={&quot;curved&quot;:0,&quot;rounded&quot;:0};participant=umlBoundary;" vertex="1" parent="1">
          <mxGeometry x="160" y="40" width="90" height="340" as="geometry" />
        </mxCell>
        <mxCell id="N4xBi6FYFiMWQYnDKV4r-4" value="" style="html=1;points=[[0,0,0,0,5],[0,1,0,0,-5],[1,0,0,0,5],[1,1,0,0,-5]];perimeter=orthogonalPerimeter;outlineConnect=0;targetShapes=umlLifeline;portConstraint=eastwest;newEdgeStyle={&quot;curved&quot;:0,&quot;rounded&quot;:0};" vertex="1" parent="N4xBi6FYFiMWQYnDKV4r-2">
          <mxGeometry x="40" y="70" width="10" height="80" as="geometry" />
        </mxCell>
        <mxCell id="N4xBi6FYFiMWQYnDKV4r-5" value="Quiz_Controll" style="shape=umlLifeline;perimeter=lifelinePerimeter;whiteSpace=wrap;html=1;container=1;dropTarget=0;collapsible=0;recursiveResize=0;outlineConnect=0;portConstraint=eastwest;newEdgeStyle={&quot;curved&quot;:0,&quot;rounded&quot;:0};participant=umlControl;" vertex="1" parent="1">
          <mxGeometry x="457" y="40" width="90" height="300" as="geometry" />
        </mxCell>
        <mxCell id="N4xBi6FYFiMWQYnDKV4r-19" value="" style="html=1;points=[[0,0,0,0,5],[0,1,0,0,-5],[1,0,0,0,5],[1,1,0,0,-5]];perimeter=orthogonalPerimeter;outlineConnect=0;targetShapes=umlLifeline;portConstraint=eastwest;newEdgeStyle={&quot;curved&quot;:0,&quot;rounded&quot;:0};" vertex="1" parent="N4xBi6FYFiMWQYnDKV4r-5">
          <mxGeometry x="40" y="70" width="10" height="100" as="geometry" />
        </mxCell>
        <mxCell id="N4xBi6FYFiMWQYnDKV4r-23" value="" style="html=1;points=[[0,0,0,0,5],[0,1,0,0,-5],[1,0,0,0,5],[1,1,0,0,-5]];perimeter=orthogonalPerimeter;outlineConnect=0;targetShapes=umlLifeline;portConstraint=eastwest;newEdgeStyle={&quot;curved&quot;:0,&quot;rounded&quot;:0};" vertex="1" parent="N4xBi6FYFiMWQYnDKV4r-5">
          <mxGeometry x="-382" y="260" width="10" height="80" as="geometry" />
        </mxCell>
        <mxCell id="N4xBi6FYFiMWQYnDKV4r-22" value="" style="html=1;points=[[0,0,0,0,5],[0,1,0,0,-5],[1,0,0,0,5],[1,1,0,0,-5]];perimeter=orthogonalPerimeter;outlineConnect=0;targetShapes=umlLifeline;portConstraint=eastwest;newEdgeStyle={&quot;curved&quot;:0,&quot;rounded&quot;:0};" vertex="1" parent="N4xBi6FYFiMWQYnDKV4r-5">
          <mxGeometry x="40" y="260" width="10" height="80" as="geometry" />
        </mxCell>
        <mxCell id="N4xBi6FYFiMWQYnDKV4r-26" style="edgeStyle=orthogonalEdgeStyle;rounded=0;orthogonalLoop=1;jettySize=auto;html=1;curved=0;exitX=1;exitY=0;exitDx=0;exitDy=5;exitPerimeter=0;entryX=0;entryY=0;entryDx=0;entryDy=5;entryPerimeter=0;" edge="1" parent="N4xBi6FYFiMWQYnDKV4r-5" source="N4xBi6FYFiMWQYnDKV4r-23" target="N4xBi6FYFiMWQYnDKV4r-22">
          <mxGeometry relative="1" as="geometry" />
        </mxCell>
        <mxCell id="N4xBi6FYFiMWQYnDKV4r-27" value="" style="html=1;verticalAlign=bottom;endArrow=open;dashed=1;endSize=8;curved=0;rounded=0;exitX=0;exitY=1;exitDx=0;exitDy=-5;exitPerimeter=0;entryX=1;entryY=1;entryDx=0;entryDy=-5;entryPerimeter=0;" edge="1" parent="N4xBi6FYFiMWQYnDKV4r-5" source="N4xBi6FYFiMWQYnDKV4r-22" target="N4xBi6FYFiMWQYnDKV4r-23">
          <mxGeometry relative="1" as="geometry">
            <mxPoint x="-347" y="335" as="targetPoint" />
            <mxPoint x="-222" y="300" as="sourcePoint" />
          </mxGeometry>
        </mxCell>
        <mxCell id="N4xBi6FYFiMWQYnDKV4r-34" value="PointDecrease()/PointIncrease()" style="text;html=1;strokeColor=none;fillColor=none;align=center;verticalAlign=middle;whiteSpace=wrap;rounded=0;" vertex="1" parent="N4xBi6FYFiMWQYnDKV4r-5">
          <mxGeometry x="-187" y="310" width="60" height="30" as="geometry" />
        </mxCell>
        <mxCell id="N4xBi6FYFiMWQYnDKV4r-8" style="edgeStyle=orthogonalEdgeStyle;rounded=0;orthogonalLoop=1;jettySize=auto;html=1;curved=0;exitX=1;exitY=0;exitDx=0;exitDy=5;exitPerimeter=0;entryX=0;entryY=0;entryDx=0;entryDy=5;entryPerimeter=0;" edge="1" parent="1" source="N4xBi6FYFiMWQYnDKV4r-3" target="N4xBi6FYFiMWQYnDKV4r-4">
          <mxGeometry relative="1" as="geometry">
            <Array as="points">
              <mxPoint x="85" y="115" />
            </Array>
          </mxGeometry>
        </mxCell>
        <mxCell id="N4xBi6FYFiMWQYnDKV4r-9" style="edgeStyle=orthogonalEdgeStyle;rounded=0;orthogonalLoop=1;jettySize=auto;html=1;curved=0;exitX=1;exitY=0;exitDx=0;exitDy=5;exitPerimeter=0;" edge="1" parent="1" source="N4xBi6FYFiMWQYnDKV4r-4" target="N4xBi6FYFiMWQYnDKV4r-19">
          <mxGeometry relative="1" as="geometry">
            <mxPoint x="340" y="125" as="targetPoint" />
            <Array as="points">
              <mxPoint x="210" y="125" />
            </Array>
          </mxGeometry>
        </mxCell>
        <mxCell id="N4xBi6FYFiMWQYnDKV4r-11" value="Quiz_Db" style="shape=umlLifeline;perimeter=lifelinePerimeter;whiteSpace=wrap;html=1;container=1;dropTarget=0;collapsible=0;recursiveResize=0;outlineConnect=0;portConstraint=eastwest;newEdgeStyle={&quot;curved&quot;:0,&quot;rounded&quot;:0};participant=umlEntity;" vertex="1" parent="1">
          <mxGeometry x="597" y="40" width="60" height="340" as="geometry" />
        </mxCell>
        <mxCell id="N4xBi6FYFiMWQYnDKV4r-12" value="" style="html=1;points=[[0,0,0,0,5],[0,1,0,0,-5],[1,0,0,0,5],[1,1,0,0,-5]];perimeter=orthogonalPerimeter;outlineConnect=0;targetShapes=umlLifeline;portConstraint=eastwest;newEdgeStyle={&quot;curved&quot;:0,&quot;rounded&quot;:0};" vertex="1" parent="N4xBi6FYFiMWQYnDKV4r-11">
          <mxGeometry x="25" y="70" width="10" height="100" as="geometry" />
        </mxCell>
        <mxCell id="N4xBi6FYFiMWQYnDKV4r-20" value="" style="html=1;verticalAlign=bottom;endArrow=block;curved=0;rounded=0;exitX=1;exitY=0;exitDx=0;exitDy=5;exitPerimeter=0;" edge="1" target="N4xBi6FYFiMWQYnDKV4r-11" parent="1" source="N4xBi6FYFiMWQYnDKV4r-19">
          <mxGeometry relative="1" as="geometry">
            <mxPoint x="577" y="115" as="sourcePoint" />
          </mxGeometry>
        </mxCell>
        <mxCell id="N4xBi6FYFiMWQYnDKV4r-21" value="Quiz" style="html=1;verticalAlign=bottom;endArrow=open;dashed=1;endSize=8;curved=0;rounded=0;entryX=1;entryY=1;entryDx=0;entryDy=-5;entryPerimeter=0;exitX=0;exitY=1;exitDx=0;exitDy=-5;exitPerimeter=0;" edge="1" source="N4xBi6FYFiMWQYnDKV4r-12" parent="1" target="N4xBi6FYFiMWQYnDKV4r-19">
          <mxGeometry relative="1" as="geometry">
            <mxPoint x="577" y="185" as="targetPoint" />
            <mxPoint x="617" y="185" as="sourcePoint" />
          </mxGeometry>
        </mxCell>
        <mxCell id="N4xBi6FYFiMWQYnDKV4r-24" value="&amp;nbsp; &amp;nbsp; End_Result" style="shape=umlLifeline;perimeter=lifelinePerimeter;whiteSpace=wrap;html=1;container=1;dropTarget=0;collapsible=0;recursiveResize=0;outlineConnect=0;portConstraint=eastwest;newEdgeStyle={&quot;curved&quot;:0,&quot;rounded&quot;:0};participant=umlBoundary;" vertex="1" parent="1">
          <mxGeometry x="730" y="40" width="80" height="300" as="geometry" />
        </mxCell>
        <mxCell id="N4xBi6FYFiMWQYnDKV4r-25" value="" style="html=1;points=[[0,0,0,0,5],[0,1,0,0,-5],[1,0,0,0,5],[1,1,0,0,-5]];perimeter=orthogonalPerimeter;outlineConnect=0;targetShapes=umlLifeline;portConstraint=eastwest;newEdgeStyle={&quot;curved&quot;:0,&quot;rounded&quot;:0};" vertex="1" parent="N4xBi6FYFiMWQYnDKV4r-24">
          <mxGeometry x="35" y="130" width="10" height="140" as="geometry" />
        </mxCell>
        <mxCell id="N4xBi6FYFiMWQYnDKV4r-29" style="edgeStyle=orthogonalEdgeStyle;rounded=0;orthogonalLoop=1;jettySize=auto;html=1;curved=0;exitX=1;exitY=1;exitDx=0;exitDy=-5;exitPerimeter=0;" edge="1" parent="1" source="N4xBi6FYFiMWQYnDKV4r-3" target="N4xBi6FYFiMWQYnDKV4r-25">
          <mxGeometry relative="1" as="geometry">
            <Array as="points">
              <mxPoint x="85" y="240" />
            </Array>
          </mxGeometry>
        </mxCell>
        <mxCell id="N4xBi6FYFiMWQYnDKV4r-30" style="edgeStyle=orthogonalEdgeStyle;rounded=0;orthogonalLoop=1;jettySize=auto;html=1;curved=0;exitX=1;exitY=0;exitDx=0;exitDy=5;exitPerimeter=0;entryX=0;entryY=1;entryDx=0;entryDy=-5;entryPerimeter=0;" edge="1" parent="1" source="N4xBi6FYFiMWQYnDKV4r-22" target="N4xBi6FYFiMWQYnDKV4r-25">
          <mxGeometry relative="1" as="geometry">
            <Array as="points">
              <mxPoint x="765" y="305" />
            </Array>
          </mxGeometry>
        </mxCell>
        <mxCell id="N4xBi6FYFiMWQYnDKV4r-31" value="Menjawab" style="text;html=1;strokeColor=none;fillColor=none;align=center;verticalAlign=middle;whiteSpace=wrap;rounded=0;" vertex="1" parent="1">
          <mxGeometry x="110" y="90" width="60" height="30" as="geometry" />
        </mxCell>
        <mxCell id="N4xBi6FYFiMWQYnDKV4r-32" value="IsValid()" style="text;html=1;strokeColor=none;fillColor=none;align=center;verticalAlign=middle;whiteSpace=wrap;rounded=0;" vertex="1" parent="1">
          <mxGeometry x="330" y="100" width="60" height="30" as="geometry" />
        </mxCell>
        <mxCell id="N4xBi6FYFiMWQYnDKV4r-33" value="" style="html=1;verticalAlign=bottom;endArrow=open;dashed=1;endSize=8;curved=0;rounded=0;exitX=0;exitY=1;exitDx=0;exitDy=-5;exitPerimeter=0;" edge="1" parent="1" source="N4xBi6FYFiMWQYnDKV4r-19" target="N4xBi6FYFiMWQYnDKV4r-3">
          <mxGeometry relative="1" as="geometry">
            <mxPoint x="212.5" y="210" as="targetPoint" />
            <mxPoint x="327.5" y="210" as="sourcePoint" />
          </mxGeometry>
        </mxCell>
        <mxCell id="N4xBi6FYFiMWQYnDKV4r-35" value="GetScore()" style="text;html=1;strokeColor=none;fillColor=none;align=center;verticalAlign=middle;whiteSpace=wrap;rounded=0;" vertex="1" parent="1">
          <mxGeometry x="270" y="280" width="60" height="30" as="geometry" />
        </mxCell>
        <mxCell id="N4xBi6FYFiMWQYnDKV4r-36" value="GetQuiz()" style="text;html=1;strokeColor=none;fillColor=none;align=center;verticalAlign=middle;whiteSpace=wrap;rounded=0;" vertex="1" parent="1">
          <mxGeometry x="530" y="90" width="60" height="30" as="geometry" />
        </mxCell>
        <mxCell id="N4xBi6FYFiMWQYnDKV4r-38" value="PointSkillDecrease()/PointSkillIncrease()" style="text;html=1;strokeColor=none;fillColor=none;align=center;verticalAlign=middle;whiteSpace=wrap;rounded=0;" vertex="1" parent="1">
          <mxGeometry x="230" y="175" width="220" height="30" as="geometry" />
        </mxCell>
        <mxCell id="N4xBi6FYFiMWQYnDKV4r-39" value="Menampilkan Score dan peringkat" style="text;html=1;strokeColor=none;fillColor=none;align=center;verticalAlign=middle;whiteSpace=wrap;rounded=0;" vertex="1" parent="1">
          <mxGeometry x="270" y="220" width="190" height="30" as="geometry" />
        </mxCell>
      </root>
    </mxGraphModel>
  </diagram>
</mxfile>
